<svg xmlns="http://www.w3.org/2000/svg" viewBox="0 0 372.25 70.22" fill="currentColor">
  <path d="M9.66,43.92a14.08,14.08,0,0,0,4.1,3.31,10.92,10.92,0,0,0,5.06,1.15,8.06,8.06,0,0,0,5.48-1.82,6,6,0,0,0,2.1-4.71,6.78,6.78,0,0,0-1.33-4.39,10.71,10.71,0,0,0-3.69-2.8,53.2,53.2,0,0,0-5.44-2.29,36.74,36.74,0,0,1-4.07-1.72,21.9,21.9,0,0,1-4.29-2.74,13.69,13.69,0,0,1-3.37-4.07A12,12,0,0,1,2.88,18a12,12,0,0,1,2-6.92,13.47,13.47,0,0,1,5.51-4.63,18.21,18.21,0,0,1,7.9-1.66,17.38,17.38,0,0,1,7.58,1.55,17.65,17.65,0,0,1,5.44,3.93,20.48,20.48,0,0,1,3.48,5L28.09,19a15.69,15.69,0,0,0-2.32-3.41,10.94,10.94,0,0,0-3.26-2.52,9.29,9.29,0,0,0-4.32-.95c-2.3,0-4,.53-5.06,1.58a5,5,0,0,0-1.61,3.69,5.41,5.41,0,0,0,1.16,3.4,11.15,11.15,0,0,0,3.61,2.85,45.83,45.83,0,0,0,6.39,2.73,31.24,31.24,0,0,1,4.39,2,18,18,0,0,1,4,3A13.77,13.77,0,0,1,34,35.53a13.42,13.42,0,0,1,1.09,5.62,14,14,0,0,1-1.33,6.18,13.29,13.29,0,0,1-3.65,4.6,17.56,17.56,0,0,1-5.24,2.88,18.2,18.2,0,0,1-6.07,1,18.89,18.89,0,0,1-8-1.72,21.17,21.17,0,0,1-6.43-4.6A24.6,24.6,0,0,1,0,43.26L6.18,39A30.9,30.9,0,0,0,9.66,43.92Z"/>
  <path d="M44.14,6.32a4.93,4.93,0,0,1,6.74,0,4.44,4.44,0,0,1,1.37,3.3,4.5,4.5,0,0,1-1.37,3.27,4.83,4.83,0,0,1-6.74,0A4.38,4.38,0,0,1,42.7,9.62,4.32,4.32,0,0,1,44.14,6.32Zm7,16.15v32.3H43.75V22.47Z"/>
  <path d="M107.86,54.77h-7.58V35.11A9.25,9.25,0,0,0,99,29.67a4.75,4.75,0,0,0-4.11-1.79,6.46,6.46,0,0,0-3.33.84,5.73,5.73,0,0,0-2.25,2.46,8.71,8.71,0,0,0-.81,3.93V54.77H80.9V35.11a9.32,9.32,0,0,0-1.3-5.44,4.75,4.75,0,0,0-4.11-1.79,6.66,6.66,0,0,0-3.41.84,5.53,5.53,0,0,0-2.21,2.46,9.15,9.15,0,0,0-.77,3.93V54.77H61.66V22.47H69.1v4.71a9.94,9.94,0,0,1,3.69-4,10.26,10.26,0,0,1,5.37-1.37,11,11,0,0,1,5.93,1.47,8.38,8.38,0,0,1,3.41,4.29,11.89,11.89,0,0,1,4.25-4.29,11.54,11.54,0,0,1,5.86-1.47,10.53,10.53,0,0,1,5.72,1.44,8.67,8.67,0,0,1,3.41,4.25,18.32,18.32,0,0,1,1.12,6.81Z"/>
  <path d="M117.27,70.22V22.47h7.66V70.22ZM149.5,47.79a15.06,15.06,0,0,1-5.75,5.83,15.78,15.78,0,0,1-7.8,2,12.54,12.54,0,0,1-7.2-2.07,13.34,13.34,0,0,1-4.7-5.9,22.68,22.68,0,0,1-1.65-9,22.62,22.62,0,0,1,1.65-9.06,13.33,13.33,0,0,1,4.7-5.86,12.54,12.54,0,0,1,7.2-2.07,15.78,15.78,0,0,1,7.8,2,15.09,15.09,0,0,1,5.75,5.79,18.13,18.13,0,0,1,2.18,9.2A18.17,18.17,0,0,1,149.5,47.79Zm-7-14.68a8.8,8.8,0,0,0-3.54-3.44,10.43,10.43,0,0,0-4.88-1.16,8.84,8.84,0,0,0-4.29,1.16,9.29,9.29,0,0,0-3.47,3.41,10.37,10.37,0,0,0-1.37,5.54,10.43,10.43,0,0,0,1.37,5.55,9.36,9.36,0,0,0,3.47,3.41,8.83,8.83,0,0,0,4.29,1.15,10.42,10.42,0,0,0,4.88-1.15,8.86,8.86,0,0,0,3.54-3.44,10.77,10.77,0,0,0,1.34-5.52A10.74,10.74,0,0,0,142.48,33.11Z"/>
  <path d="M166.5,0V54.77h-7.59V0Z"/>
  <path d="M183.7,54.77h-7.51V22.47h7.51Zm7.66-25.49a5.56,5.56,0,0,0-2.32-.42,4.66,4.66,0,0,0-3.09,1,5.38,5.38,0,0,0-1.72,2.7,13.89,13.89,0,0,0-.53,4l-2.53-1.48a15.56,15.56,0,0,1,1.44-6.84,13,13,0,0,1,3.73-4.75,7.67,7.67,0,0,1,4.74-1.75,10,10,0,0,1,3.3.53A5.54,5.54,0,0,1,197,24.16l-3.65,6.39A10,10,0,0,0,191.36,29.28Z"/>
  <path d="M257.08,5.62h9.56l-24,51.89-24-51.89h9.55l14.47,34.55Z"/>
  <path d="M272.85,6.32A4.75,4.75,0,0,1,276.19,5a4.68,4.68,0,0,1,3.4,1.33A4.44,4.44,0,0,1,281,9.62a4.5,4.5,0,0,1-1.37,3.27,4.63,4.63,0,0,1-3.4,1.37,4.71,4.71,0,0,1-3.34-1.37,4.38,4.38,0,0,1-1.44-3.27A4.32,4.32,0,0,1,272.85,6.32Zm7.06,16.15v32.3h-7.45V22.47Z"/>
  <path d="M295.74,53.37a14.49,14.49,0,0,1-5.79-5.9,18.41,18.41,0,0,1-2-8.85A18.37,18.37,0,0,1,290,29.7a14.47,14.47,0,0,1,5.87-5.86,18.31,18.31,0,0,1,8.92-2.07,17.84,17.84,0,0,1,8.7,2A13.29,13.29,0,0,1,319,29.39a18.9,18.9,0,0,1,1.94,8.88c0,.38,0,.77,0,1.2a6,6,0,0,1-.1.91H292.41v-5.2h21.9L312,38.41a8.34,8.34,0,0,0,.45-1.16A3.87,3.87,0,0,0,312.7,36a9.33,9.33,0,0,0-1-4.49,7.4,7.4,0,0,0-2.81-3,8.08,8.08,0,0,0-4.18-1,9.15,9.15,0,0,0-4.91,1.26,7.9,7.9,0,0,0-3.09,3.65,15.35,15.35,0,0,0-1.12,5.9,15,15,0,0,0,1.05,5.94A7.82,7.82,0,0,0,299.74,48a9.42,9.42,0,0,0,5,1.27,11,11,0,0,0,5.4-1.27A10.14,10.14,0,0,0,314,44.1l6.53,2.67A16.79,16.79,0,0,1,314,53.3a19.85,19.85,0,0,1-9.62,2.18A17.5,17.5,0,0,1,295.74,53.37Z"/>
  <path d="M330.47,22.47l7.58,19.24L347,20l9.48,21.77L364,22.47h8.22l-15.1,34.62L347,35.25l-9.69,21.84-15.1-34.62Z"/>
  <path d="M137.81,38.62a3.43,3.43,0,0,1-3.16-4.79l-.28,0a4.82,4.82,0,1,0,4.82,4.81c0-.09,0-.18,0-.28A3.4,3.4,0,0,1,137.81,38.62Z"/>
</svg>
