<svg xmlns="http://www.w3.org/2000/svg" viewBox="0 0 231.56 137"><defs><style>.cls-1{fill:#fff;}.cls-1,.cls-2{stroke:#335dcb;stroke-miterlimit:10;stroke-width:10px;}.cls-2{fill:none;}.cls-3{fill:#335dcb;}</style></defs><title>simplr-view-logo</title><g id="Camada_2" data-name="Camada 2"><g id="Camada_1-2" data-name="Camada 1"><path class="cls-1" d="M115.78,5a126.93,126.93,0,0,0-110,63.5,126.93,126.93,0,0,0,110,63.5h0a127,127,0,0,0,110-63.5A127,127,0,0,0,115.78,5Z"/><circle class="cls-2" cx="115.28" cy="68.5" r="57.5"/><path class="cls-3" d="M140.54,63.45a16.77,16.77,0,0,1-16.31-21A27.49,27.49,0,0,0,92,83.12,10.09,10.09,0,0,1,108,95a27.49,27.49,0,0,0,34.8-26.51,27.15,27.15,0,0,0-.49-5.14A16.8,16.8,0,0,1,140.54,63.45Z"/></g></g></svg>